<svg xmlns="http://www.w3.org/2000/svg" viewBox="0 0 234 224"><path fill="#C5AEFD" fill-rule="evenodd" d="M66.161,0.539 C63.041,0.598 59.914,0.864 56.814,1.336 C53.714,1.808 50.641,2.486 47.626,3.369 C44.611,4.252 41.655,5.340 38.790,6.631 C35.925,7.923 33.151,9.420 30.499,11.116 C27.847,12.813 25.317,14.705 22.936,16.765 C20.556,18.826 18.324,21.055 16.270,23.425 C14.215,25.795 12.337,28.307 10.664,30.932 C8.990,33.558 7.523,36.297 6.284,39.124 C5.046,41.950 4.029,44.865 3.198,47.854 C2.366,50.843 1.720,53.906 1.221,57.028 C0.721,60.149 0.370,63.330 0.128,66.555 C-0.114,69.779 -0.246,73.048 -0.305,76.346 C-0.364,79.644 -0.351,82.971 -0.303,86.313 C-0.254,89.654 -0.171,93.010 -0.089,96.366 C-0.008,99.722 0.067,103.075 0.114,106.418 C0.162,109.761 0.188,113.095 0.200,116.423 C0.211,119.750 0.207,123.070 0.193,126.385 C0.179,129.700 0.156,133.008 0.128,136.312 C0.100,139.616 0.067,142.916 0.036,146.212 C0.005,149.508 -0.024,152.800 -0.048,156.090 C-0.071,159.381 -0.087,162.669 -0.091,165.956 C-0.095,169.243 -0.093,172.532 0.010,175.780 C0.113,179.028 0.317,182.235 0.720,185.356 C1.123,188.477 1.725,191.513 2.621,194.418 C3.518,197.324 4.728,200.099 6.280,202.701 C7.831,205.302 9.703,207.729 11.834,209.938 C13.965,212.146 16.354,214.136 18.942,215.862 C21.530,217.589 24.316,219.052 27.239,220.208 C30.161,221.363 33.218,222.194 36.359,222.720 C39.499,223.245 42.728,223.484 46.009,223.535 C49.289,223.586 52.622,223.449 55.973,223.223 C59.323,222.998 62.693,222.689 66.039,222.380 C69.386,222.070 72.684,221.714 75.612,220.866 C78.540,220.018 81.068,218.626 82.974,216.421 C84.880,214.216 86.233,211.326 87.195,208.172 C88.157,205.018 88.730,201.634 89.064,198.321 C89.398,195.008 89.486,191.703 89.449,188.404 C89.412,185.105 89.248,181.812 89.079,178.523 C88.909,175.233 88.736,171.949 88.672,168.664 C88.607,165.379 88.639,162.088 88.770,158.737 C88.900,155.386 89.185,151.936 89.388,148.492 C89.592,145.047 89.665,141.640 89.182,138.502 C88.699,135.363 87.627,132.506 86.097,129.923 C84.566,127.339 82.580,125.027 80.276,122.974 C77.971,120.921 75.342,119.142 72.588,117.500 C69.834,115.859 66.958,114.353 64.164,112.841 C61.370,111.328 58.690,109.792 56.078,108.226 C53.466,106.660 50.916,105.068 48.361,103.456 C45.806,101.843 43.247,100.210 40.616,98.563 C37.986,96.915 35.285,95.252 32.448,93.581 C29.610,91.909 26.518,90.266 24.038,88.352 C21.558,86.437 19.713,84.243 19.443,81.444 C19.174,78.645 20.703,74.890 23.011,72.948 C25.319,71.005 28.322,71.540 31.272,72.473 C34.222,73.407 37.099,74.535 39.920,75.789 C42.741,77.044 45.506,78.430 48.237,79.894 C50.967,81.359 53.663,82.901 56.344,84.467 C59.025,86.033 61.691,87.624 64.363,89.185 C67.035,90.747 69.711,92.282 72.395,93.793 C75.080,95.305 77.771,96.793 80.473,98.263 C83.175,99.732 85.887,101.182 88.612,102.616 C91.337,104.051 94.074,105.470 96.828,106.878 C99.581,108.285 102.350,109.681 105.106,111.107 C107.862,112.533 110.605,113.990 113.305,115.521 C116.006,117.052 118.663,118.657 121.249,120.379 C123.835,122.101 126.349,123.941 128.762,125.940 C131.175,127.940 133.483,130.100 135.518,132.459 C137.553,134.817 139.314,137.375 140.633,140.169 C141.951,142.963 142.803,146.007 143.357,149.170 C143.911,152.333 144.168,155.612 144.302,158.886 C144.436,162.159 144.442,165.440 144.467,168.700 C144.493,171.961 144.537,175.201 144.749,178.394 C144.960,181.587 145.338,184.733 146.030,187.804 C146.721,190.875 147.742,193.875 149.057,196.740 C150.372,199.606 151.980,202.338 153.841,204.872 C155.701,207.405 157.815,209.741 160.140,211.816 C162.465,213.891 165.003,215.705 167.712,217.194 C170.422,218.683 173.305,219.828 176.311,220.687 C179.318,221.546 182.448,222.127 185.649,222.511 C188.850,222.896 192.122,223.084 195.414,223.158 C198.705,223.232 202.021,223.221 205.294,223.104 C208.567,222.987 211.789,222.707 214.853,221.953 C217.918,221.199 220.851,219.906 223.416,218.081 C225.980,216.255 228.160,213.931 229.665,211.241 C231.170,208.550 231.874,205.479 232.074,202.225 C232.274,198.972 232.045,195.545 231.953,192.177 C231.860,188.808 231.919,185.503 231.995,182.208 C232.070,178.914 232.147,175.625 232.145,172.308 C232.143,168.992 232.088,165.658 232.021,162.317 C231.954,158.977 231.873,155.631 231.821,152.290 C231.768,148.949 231.744,145.615 231.786,142.297 C231.828,138.979 231.932,135.678 232.043,132.381 C232.155,129.085 232.274,125.794 232.346,122.497 C232.419,119.200 232.445,115.898 232.370,112.580 C232.296,109.262 232.121,105.918 231.788,102.617 C231.456,99.316 230.966,96.059 230.260,92.917 C229.554,89.775 228.633,86.748 227.438,83.909 C226.242,81.070 224.763,78.429 222.980,76.021 C221.197,73.614 219.131,71.424 216.860,69.400 C214.589,67.377 212.113,65.520 209.512,63.782 C206.910,62.043 204.182,60.422 201.407,58.869 C198.632,57.317 195.814,55.830 193.017,54.367 C190.220,52.904 187.432,51.471 184.653,50.060 C181.875,48.649 179.105,47.260 176.343,45.885 C173.581,44.510 170.826,43.149 168.079,41.795 C165.331,40.441 162.591,39.093 159.856,37.743 C157.121,36.393 154.392,35.042 151.667,33.682 C148.943,32.321 146.224,30.951 143.508,29.564 C140.793,28.176 138.081,26.772 135.372,25.342 C132.663,23.912 129.958,22.454 127.253,20.971 C124.547,19.489 121.839,17.990 119.113,16.514 C116.387,15.038 113.643,13.586 110.868,12.199 C108.092,10.811 105.284,9.487 102.429,8.268 C99.573,7.049 96.668,5.937 93.710,4.964 C90.751,3.991 87.745,3.155 84.704,2.480 C81.663,1.804 78.588,1.290 75.492,0.958 C72.397,0.627 69.282,0.479 66.161,0.539 Z"/></svg>
